<svg width="1400" height="900" viewBox="0 0 1400 900" fill="none" xmlns="http://www.w3.org/2000/svg">
  <rect width="1400" height="900" fill="#F7F3EB"/>
  <rect x="72" y="82" width="284" height="132" rx="24" fill="#FFF9EE" stroke="#1B2A37" stroke-width="6"/>
  <text x="108" y="132" fill="#1B2A37" font-family="Arial" font-size="34" font-weight="700">Customer App</text>
  <text x="108" y="176" fill="#556270" font-family="Arial" font-size="24">web, mobile, checkout UI</text>

  <rect x="556" y="82" width="284" height="132" rx="24" fill="#EAF8FF" stroke="#1B2A37" stroke-width="6"/>
  <text x="602" y="132" fill="#1B2A37" font-family="Arial" font-size="34" font-weight="700">API Gateway</text>
  <text x="602" y="176" fill="#556270" font-family="Arial" font-size="24">auth, routing, rate limits</text>

  <rect x="1036" y="82" width="284" height="132" rx="24" fill="#FFF2E8" stroke="#1B2A37" stroke-width="6"/>
  <text x="1077" y="132" fill="#1B2A37" font-family="Arial" font-size="34" font-weight="700">Ops Console</text>
  <text x="1077" y="176" fill="#556270" font-family="Arial" font-size="24">alerts, dashboards, triage</text>

  <rect x="236" y="364" width="284" height="132" rx="24" fill="#F6F7FF" stroke="#1B2A37" stroke-width="6"/>
  <text x="276" y="414" fill="#1B2A37" font-family="Arial" font-size="34" font-weight="700">Order Service</text>
  <text x="276" y="458" fill="#556270" font-family="Arial" font-size="24">orchestrates checkout flow</text>

  <rect x="558" y="364" width="284" height="132" rx="24" fill="#EFFBF4" stroke="#1B2A37" stroke-width="6"/>
  <text x="603" y="414" fill="#1B2A37" font-family="Arial" font-size="34" font-weight="700">Payment Service</text>
  <text x="603" y="458" fill="#556270" font-family="Arial" font-size="24">capture, retries, webhooks</text>

  <rect x="880" y="364" width="284" height="132" rx="24" fill="#FFF9EE" stroke="#1B2A37" stroke-width="6"/>
  <text x="925" y="414" fill="#1B2A37" font-family="Arial" font-size="34" font-weight="700">Fulfillment</text>
  <text x="925" y="458" fill="#556270" font-family="Arial" font-size="24">inventory, packing, shipment</text>

  <rect x="394" y="646" width="284" height="132" rx="24" fill="#FFFFFF" stroke="#1B2A37" stroke-width="6"/>
  <text x="444" y="696" fill="#1B2A37" font-family="Arial" font-size="34" font-weight="700">Postgres</text>
  <text x="444" y="740" fill="#556270" font-family="Arial" font-size="24">orders, payments, audit log</text>

  <rect x="782" y="646" width="284" height="132" rx="24" fill="#FFFFFF" stroke="#1B2A37" stroke-width="6"/>
  <text x="840" y="696" fill="#1B2A37" font-family="Arial" font-size="34" font-weight="700">Event Bus</text>
  <text x="840" y="740" fill="#556270" font-family="Arial" font-size="24">async domain events</text>

  <path d="M356 148H556" stroke="#1B2A37" stroke-width="8" stroke-linecap="round"/>
  <path d="M840 148H1036" stroke="#1B2A37" stroke-width="8" stroke-linecap="round"/>
  <path d="M696 214V364" stroke="#1B2A37" stroke-width="8" stroke-linecap="round"/>
  <path d="M378 214L378 306L378 306L378 364" stroke="#1B2A37" stroke-width="8" stroke-linecap="round"/>
  <path d="M1022 214L1022 306L1022 306L1022 364" stroke="#1B2A37" stroke-width="8" stroke-linecap="round"/>
  <path d="M520 430H558" stroke="#1B2A37" stroke-width="8" stroke-linecap="round"/>
  <path d="M842 430H880" stroke="#1B2A37" stroke-width="8" stroke-linecap="round"/>
  <path d="M700 496V646" stroke="#1B2A37" stroke-width="8" stroke-linecap="round"/>
  <path d="M924 496V646" stroke="#1B2A37" stroke-width="8" stroke-linecap="round"/>

  <text x="136" y="836" fill="#1B2A37" font-family="Arial" font-size="30" font-weight="700">Goal:</text>
  <text x="222" y="836" fill="#556270" font-family="Arial" font-size="28">Generate a Notion technical brief with assumptions, risks, bottlenecks, and next actions.</text>
</svg>